<?xml version="1.0" standalone="no"?>
<!DOCTYPE svg PUBLIC "-//W3C//DTD SVG 20010904//EN"
 "http://www.w3.org/TR/2001/REC-SVG-20010904/DTD/svg10.dtd">
<svg version="1.0" xmlns="http://www.w3.org/2000/svg"
 width="512.000000pt" height="512.000000pt" viewBox="0 0 512.000000 512.000000"
 preserveAspectRatio="xMidYMid meet">

<g transform="translate(0.000000,512.000000) scale(0.100000,-0.100000)"
fill="#000000" stroke="none">
<path d="M1457 4865 c-48 -16 -83 -48 -108 -97 -18 -35 -19 -63 -19 -423 l0
-385 1895 0 1895 0 0 368 c0 225 -4 382 -11 405 -13 49 -64 105 -114 128 -38
18 -120 18 -1770 18 -1441 0 -1736 -2 -1768 -14z m1163 -270 c42 -22 53 -70
48 -205 -3 -108 -4 -113 -31 -136 l-28 -24 -465 0 -465 0 -24 25 c-24 23 -25
29 -25 157 0 143 8 170 54 188 11 5 220 9 464 9 376 1 447 -1 472 -14z m2053
4 c47 -13 106 -63 123 -106 8 -18 14 -53 14 -78 0 -175 -229 -250 -336 -110
-40 53 -46 145 -13 205 24 42 67 75 117 90 38 12 52 11 95 -1z m-566 -18 c76
-35 120 -135 93 -215 -26 -80 -88 -126 -170 -126 -93 0 -158 47 -181 132 -40
150 114 274 258 209z m-935 -111 c25 -26 29 -36 24 -63 -11 -59 -33 -67 -173
-67 -118 0 -125 1 -148 25 -27 26 -31 51 -14 89 17 37 45 45 167 45 113 1 114
1 144 -29z m473 5 c32 -31 33 -80 3 -112 -20 -22 -29 -23 -147 -23 -114 0
-127 2 -148 22 -32 30 -31 81 2 113 23 24 30 25 145 25 115 0 122 -1 145 -25z"/>
<path d="M3015 3435 c-284 -47 -538 -177 -740 -380 -147 -147 -251 -311 -319
-503 -36 -102 -67 -261 -56 -283 15 -26 11 -100 -5 -129 -8 -14 -14 -37 -15
-52 l0 -28 129 0 c113 0 131 -2 153 -20 l25 -19 6 137 c7 169 29 258 102 407
101 208 262 369 470 471 130 63 226 91 358 103 307 29 608 -79 826 -297 220
-220 334 -535 301 -832 -41 -369 -254 -673 -585 -831 -164 -78 -238 -94 -445
-94 -211 0 -285 17 -455 100 -288 140 -497 411 -560 725 l-13 65 -1 -97 c-1
-120 -14 -138 -97 -138 -29 0 -55 -3 -57 -7 -2 -5 -7 -55 -11 -113 l-7 -105
46 -80 c186 -326 526 -566 912 -642 120 -23 366 -23 486 0 486 96 873 433
1027 895 51 155 65 241 65 422 0 178 -14 267 -62 415 -130 398 -446 718 -843
855 -179 61 -451 85 -635 55z"/>
</g>
</svg>
